<?xml version="1.0" encoding="utf-8"?>
<!-- Generator: Adobe Illustrator 26.0.2, SVG Export Plug-In . SVG Version: 6.00 Build 0)  -->
<svg version="1.1" id="Lager_1" xmlns="http://www.w3.org/2000/svg" xmlns:xlink="http://www.w3.org/1999/xlink" x="0px" y="0px"
	 viewBox="0 0 24 24" style="enable-background:new 0 0 24 24;" xml:space="preserve">
<style type="text/css">
	.st0{fill:none;}
	.st1{fill:#E9E9E9;}
</style>
<g>
	<rect class="st0" width="24" height="24"/>
</g>
<g>
	<path class="st1" d="M19,4h-1V2h-2v2H8V2H6v2H5C3.9,4,3,4.9,3,6l0,14c0,1.1,0.9,2,2,2h14c1.1,0,2-0.9,2-2V6C21,4.9,20.1,4,19,4z
		 M19,20H5V10h14V20z M9,14H7v-2h2V14z M13,14h-2v-2h2V14z M17,14h-2v-2h2V14z M9,18H7v-2h2V18z M13,18h-2v-2h2V18z M17,18h-2v-2h2
		V18z"/>
</g>
</svg>
