<?xml version="1.0" encoding="utf-8"?>
<!-- Generator: Adobe Illustrator 26.0.2, SVG Export Plug-In . SVG Version: 6.00 Build 0)  -->
<svg version="1.1" id="Lager_1" xmlns="http://www.w3.org/2000/svg" xmlns:xlink="http://www.w3.org/1999/xlink" x="0px" y="0px"
	 viewBox="0 0 24 24" style="enable-background:new 0 0 24 24;" xml:space="preserve">
<style type="text/css">
	.st0{fill:none;}
	.st1{fill:#E9E9E9;}
</style>
<path class="st0" d="M0,0h24v24H0V0z"/>
<path class="st1" d="M9.3,17l2.4-2.4l2.4,2.4l1.1-1.1l-2.4-2.4l2.4-2.4L14.2,10l-2.4,2.4L9.3,10l-1.1,1.1l2.4,2.4l-2.4,2.4L9.3,17z
	 M19,3h-1V1h-2v2H8V1H6v2H5C3.9,3,3,3.9,3,5l0,14c0,1.1,0.9,2,2,2h14c1.1,0,2-0.9,2-2V5C21,3.9,20.1,3,19,3z M19,19H5V8h14V19z"/>
</svg>
