<svg xmlns="http://www.w3.org/2000/svg" viewBox="0 0 193.97 61.98"><defs><style>.cls-1{fill:#e9e9e9;}</style></defs><g id="Lager_2" data-name="Lager 2"><g id="Lager_1-2" data-name="Lager 1"><polygon class="cls-1" points="0 33.64 0 34.08 0 61.98 4.16 61.98 4.16 34.08 4.18 34.08 4.18 19.44 16.42 19.44 16.42 15.98 4.18 15.98 4.18 5.23 17.43 5.23 17.43 1.73 0 1.73 0 33.64"/><path class="cls-1" d="M37.39,19.83c0-4.66-1.72-9.51-8.83-9.51a14.39,14.39,0,0,0-7.63,2.07l1,2.78a11.54,11.54,0,0,1,6.05-1.73c4.75,0,5.28,3.46,5.28,5.38v.48c-9-.05-14,3-14,8.64,0,3.36,2.4,6.67,7.1,6.67a8.66,8.66,0,0,0,7.11-3.46h.14l.34,2.93h3.84a32.43,32.43,0,0,1-.39-5.57Zm-4.08,6.43a4.21,4.21,0,0,1-.24,1.34,5.77,5.77,0,0,1-5.61,3.89,3.74,3.74,0,0,1-4-4c0-4.51,5.23-5.33,9.84-5.23Z"/><path class="cls-1" d="M24.72,6.72a2.38,2.38,0,0,0,2.35-2.45,2.35,2.35,0,0,0-2.35-2.45,2.47,2.47,0,0,0-2.45,2.45A2.43,2.43,0,0,0,24.72,6.72Z"/><path class="cls-1" d="M33.6,6.72A2.38,2.38,0,0,0,36,4.27,2.35,2.35,0,0,0,33.6,1.82a2.42,2.42,0,0,0-2.4,2.45A2.39,2.39,0,0,0,33.6,6.72Z"/><path class="cls-1" d="M44.21,34.08h4.17V21.7a11.5,11.5,0,0,1,.2-2c.57-3.17,2.68-5.42,5.66-5.42a6.11,6.11,0,0,1,1.44.14v-4a4.82,4.82,0,0,0-1.2-.14,7,7,0,0,0-6.43,5.09h-.19l-.15-4.56H44c.14,2.16.19,4.51.19,7.25Z"/><path class="cls-1" d="M75.7,30.05l.19,4h3.79c-.14-1.58-.19-3.93-.19-6V0H75.27V13.87h-.1c-1.06-1.87-3.46-3.55-7-3.55-5.66,0-10.46,4.75-10.42,12.48,0,7.06,4.32,11.81,9.94,11.81a8.59,8.59,0,0,0,7.92-4.56Zm-.43-5.71a7,7,0,0,1-.2,1.82,6.34,6.34,0,0,1-6.19,5c-4.56,0-6.86-3.89-6.86-8.59,0-5.14,2.59-9,7-9a6.2,6.2,0,0,1,6.09,4.9,7.2,7.2,0,0,1,.2,1.78Z"/><path class="cls-1" d="M87.46,26.74c0,2.73.43,4.8,1.63,6.05a5.86,5.86,0,0,0,4.56,1.77A10.45,10.45,0,0,0,97.39,34l-.19-3.17a9.55,9.55,0,0,1-2.45.29c-2.35,0-3.17-1.64-3.17-4.52V14.07h6V10.85h-6V4.18l-4.12,1.1v5.57h-3.6v3.22h3.6Z"/><path class="cls-1" d="M102.91,30.29c0,5.57-.43,7.39-1.58,8.74a6.84,6.84,0,0,1-4.61,1.77l.43,3.32a10.72,10.72,0,0,0,7.2-2.64c2.07-2.12,2.79-5,2.79-9.56V10.85h-4.23Z"/><path class="cls-1" d="M105.07,1.68a2.59,2.59,0,0,0-2.69,2.64A2.52,2.52,0,0,0,105,6.91a2.48,2.48,0,0,0,2.64-2.59A2.5,2.5,0,0,0,105.07,1.68Z"/><path class="cls-1" d="M117.7,6.72a2.38,2.38,0,0,0,2.35-2.45,2.35,2.35,0,0,0-2.35-2.45,2.46,2.46,0,0,0-2.45,2.45A2.43,2.43,0,0,0,117.7,6.72Z"/><path class="cls-1" d="M112.22,27.94c0,3.36,2.4,6.67,7.11,6.67a8.63,8.63,0,0,0,7.1-3.46h.15l.33,2.93h3.84a32.5,32.5,0,0,1-.38-5.57V19.83c0-4.66-1.73-9.51-8.83-9.51a14.43,14.43,0,0,0-7.64,2.07l1,2.78a11.57,11.57,0,0,1,6-1.73c4.75,0,5.28,3.46,5.28,5.38v.48C117.22,19.25,112.22,22.32,112.22,27.94Zm14.07-5.71v4a4.51,4.51,0,0,1-.24,1.34,5.78,5.78,0,0,1-5.62,3.89,3.74,3.74,0,0,1-4-4C116.45,23,121.68,22.13,126.29,22.23Z"/><path class="cls-1" d="M126.58,6.72a2.38,2.38,0,0,0,2.35-2.45,2.35,2.35,0,0,0-2.35-2.45,2.42,2.42,0,0,0-2.4,2.45A2.39,2.39,0,0,0,126.58,6.72Z"/><path class="cls-1" d="M148.75,10.32a8.54,8.54,0,0,0-7.68,4.37H141l-.24-3.84H137c.14,1.92.19,3.89.19,6.29V34.08h4.23v-14a5.78,5.78,0,0,1,.29-2,6,6,0,0,1,5.66-4.32c4,0,5.38,3.12,5.38,6.86V34.08H157V20.21C157,12.24,152,10.32,148.75,10.32Z"/><path class="cls-1" d="M171.31,20.59c-3-1.15-4.42-2-4.42-3.93,0-1.73,1.4-3.17,3.89-3.17a9.16,9.16,0,0,1,4.76,1.34l1.05-3.07a11.55,11.55,0,0,0-5.71-1.44c-5,0-8,3.07-8,6.82,0,2.78,2,5.09,6.15,6.57,3.12,1.16,4.32,2.26,4.32,4.28s-1.44,3.45-4.51,3.45a11,11,0,0,1-5.57-1.68L162.19,33a13.23,13.23,0,0,0,6.53,1.58c5.52,0,8.69-2.88,8.69-7C177.41,24.15,175.34,22.13,171.31,20.59Z"/><path class="cls-1" d="M194,14.07V10.85h-6.05V4.18l-4.13,1.1v5.57h-3.6v3.22h3.6V26.74c0,2.73.43,4.8,1.63,6.05A5.86,5.86,0,0,0,190,34.56a10.52,10.52,0,0,0,3.75-.57l-.19-3.17a9.61,9.61,0,0,1-2.45.29c-2.35,0-3.17-1.64-3.17-4.52V14.07Z"/><rect class="cls-1" x="19" y="53.06" width="1.58" height="8.71"/><path class="cls-1" d="M19.79,49.63a1,1,0,0,0-1,1,.94.94,0,0,0,1,1,1,1,0,1,0,0-2Z"/><path class="cls-1" d="M34.43,56.83c0,2.68-1.16,3.87-3,3.87-1.62,0-2.82-1.15-2.82-3.87V49.64H27.06v7.15c0,3.77,1.88,5.19,4.36,5.19S36,60.45,36,56.72V49.64H34.43Z"/><path class="cls-1" d="M48.25,52.87a3,3,0,0,0-1.93.61,3.63,3.63,0,0,0-1,1.13h0a2.58,2.58,0,0,0-2.47-1.74,3,3,0,0,0-2.74,1.6h0L40,53.06H38.6c0,.72.07,1.46.07,2.36v6.36h1.55V56.52a2.39,2.39,0,0,1,2.09-2.36c1.21,0,1.82,1,1.82,2.4v5.22h1.55V56.4a2.75,2.75,0,0,1,.12-.8,2.05,2.05,0,0,1,1.87-1.44c1.28,0,1.9,1,1.9,2.69v4.93h1.54V56.65C51.11,53.62,49.4,52.87,48.25,52.87Z"/><path class="cls-1" d="M57.14,52.87c-2.54,0-4.09,2.07-4.09,4.7A4.05,4.05,0,0,0,57.34,62a7.09,7.09,0,0,0,2.9-.54L60,60.28a5.63,5.63,0,0,1-2.41.45,2.78,2.78,0,0,1-3-3h6.12a5.67,5.67,0,0,0,.05-.74C60.74,55.37,60,52.87,57.14,52.87Zm-2.56,3.71A2.64,2.64,0,0,1,57,54a2.25,2.25,0,0,1,2.19,2.58Z"/><path class="cls-1" d="M67.51,50.45a1.67,1.67,0,0,0-1.78-1.69,1.7,1.7,0,0,0-1.84,1.71,1.82,1.82,0,0,0,3.62,0Zm-2.7,0a.91.91,0,0,1,.88-1,1,1,0,0,1,0,2A1,1,0,0,1,64.81,50.47Z"/><path class="cls-1" d="M68.82,56.43c0-1.74-.64-3.56-3.31-3.56a5.38,5.38,0,0,0-2.86.77l.36,1A4.31,4.31,0,0,1,65.28,54a1.79,1.79,0,0,1,2,2v.18c-3.37,0-5.24,1.14-5.24,3.24A2.49,2.49,0,0,0,64.68,62a3.25,3.25,0,0,0,2.67-1.3h.05l.13,1.1H69a12,12,0,0,1-.15-2.09Zm-1.53,2.41a1.48,1.48,0,0,1-.09.51,2.16,2.16,0,0,1-2.1,1.46,1.41,1.41,0,0,1-1.5-1.52c0-1.69,2-2,3.69-2Z"/><path class="cls-1" d="M82,53.06H80.13l-2.56,3c-.25.31-.56.69-.77,1h0V49H75.19V61.78h1.57V58.5l.81-.9,3,4.18H82.5l-3.83-5.13Z"/><path class="cls-1" d="M87.33,52.87c-2.42,0-4.32,1.71-4.32,4.62A4.14,4.14,0,0,0,87.18,62a4.26,4.26,0,0,0,4.34-4.63C91.52,54.69,89.83,52.87,87.33,52.87Zm-.08,7.92c-1.54,0-2.64-1.44-2.64-3.35,0-1.66.81-3.38,2.68-3.38s2.61,1.87,2.61,3.34C89.9,59.37,88.77,60.79,87.25,60.79Z"/><path class="cls-1" d="M103.1,52.87a3,3,0,0,0-1.93.61,3.63,3.63,0,0,0-1,1.13h0a2.58,2.58,0,0,0-2.46-1.74A3,3,0,0,0,95,54.47H94.9l-.07-1.41H93.45c0,.72.07,1.46.07,2.36v6.36h1.55V56.52a2.15,2.15,0,0,1,.12-.77,2.18,2.18,0,0,1,2-1.59c1.2,0,1.81,1,1.81,2.4v5.22h1.55V56.4a2.73,2.73,0,0,1,.13-.8,2.05,2.05,0,0,1,1.87-1.44c1.28,0,1.89,1,1.89,2.69v4.93H106V56.65C106,53.62,104.25,52.87,103.1,52.87Z"/><path class="cls-1" d="M118.11,52.87a3,3,0,0,0-1.93.61,3.63,3.63,0,0,0-1,1.13h0a2.56,2.56,0,0,0-2.46-1.74,3,3,0,0,0-2.74,1.6h0l-.08-1.41h-1.38c.05.72.07,1.46.07,2.36v6.36h1.55V56.52a2.15,2.15,0,0,1,.12-.77,2.19,2.19,0,0,1,2-1.59c1.2,0,1.82,1,1.82,2.4v5.22h1.54V56.4a2.73,2.73,0,0,1,.13-.8,2.05,2.05,0,0,1,1.87-1.44c1.28,0,1.89,1,1.89,2.69v4.93H121V56.65C121,53.62,119.26,52.87,118.11,52.87Z"/><path class="cls-1" d="M130.83,53.06h-1.58v5.35A2.22,2.22,0,0,1,127,60.66c-1.44,0-2-1.11-2-2.77V53.06h-1.58v5.1c0,3.06,1.64,3.82,3,3.82a3.31,3.31,0,0,0,2.89-1.62h0l.09,1.42h1.41c-.06-.68-.08-1.48-.08-2.38Z"/><path class="cls-1" d="M137.8,52.87a3.2,3.2,0,0,0-2.88,1.64h0l-.09-1.45h-1.4c.05.72.07,1.46.07,2.36v6.36H135V56.54a2.35,2.35,0,0,1,.11-.74,2.25,2.25,0,0,1,2.13-1.62c1.49,0,2,1.17,2,2.58v5h1.59v-5.2C140.88,53.59,139,52.87,137.8,52.87Z"/></g></g></svg>